<?xml version="1.0" encoding="utf-8"?>
<!-- Generator: Adobe Illustrator 16.2.1, SVG Export Plug-In . SVG Version: 6.00 Build 0)  -->
<!DOCTYPE svg PUBLIC "-//W3C//DTD SVG 1.1//EN" "http://www.w3.org/Graphics/SVG/1.1/DTD/svg11.dtd">
<svg version="1.1" id="animation-svg" xmlns="http://www.w3.org/2000/svg" xmlns:xlink="http://www.w3.org/1999/xlink" x="0px"
	 y="0px" width="162px" height="162px" viewBox="0 0 162 162" enable-background="new 0 0 162 162" xml:space="preserve">
<circle id="bg" fill="#1DB4E9" cx="81" cy="81" r="79.9"/>
<g id="coins">
	<g id="coin-3">
		<circle fill="#77D2F2" cx="77.6" cy="63.5" r="12.7"/>
		<path fill="#FFFFFF" d="M82,65.5c-0.1-1.3-0.9-2.3-2.2-2.8c-0.5-0.2-1-0.3-1.5-0.4c-1.2-0.3-2.5-0.6-2.9-1.3
			c-0.2-0.3-0.2-0.8-0.1-1.4c0.2-0.7,1-1.3,2-1.4c1-0.2,2.5,0.1,3.3,1.4c0.2,0.3,0.7,0.5,1,0.2c0.3-0.2,0.5-0.7,0.2-1
			c-0.7-1.1-1.8-1.8-3.2-2v-1c0-0.4-0.3-0.7-0.7-0.7c-0.4,0-0.7,0.3-0.7,0.7v1h-0.1c-1.6,0.3-2.9,1.2-3.2,2.5
			c-0.2,1-0.1,1.8,0.3,2.5c0.8,1.2,2.4,1.6,3.9,1.9c0.5,0.1,1,0.2,1.4,0.3c0.8,0.3,1.1,0.9,1.2,1.5c0.1,0.7-0.3,1.3-0.9,1.6
			c-2.4,1.3-4.7-0.6-5-1.1c-0.2-0.4-0.7-0.5-1-0.3c-0.4,0.2-0.5,0.7-0.2,1c0.4,0.7,2,1.9,3.9,2.2v1.2c0,0.4,0.3,0.7,0.7,0.7
			c0.4,0,0.7-0.3,0.7-0.7v-1.2c0.5-0.1,1.1-0.3,1.6-0.6C81.5,67.9,82.1,66.8,82,65.5L82,65.5z"/>
	</g>
	<g id="coin-2">
		<circle fill="#77D2F2" cx="58.1" cy="30" r="12.7"/>
		<path fill="#FFFFFF" d="M62.5,32.1c-0.1-1.3-0.9-2.3-2.2-2.8c-0.5-0.2-1-0.3-1.5-0.4c-1.2-0.3-2.5-0.6-2.9-1.3
			c-0.2-0.3-0.2-0.8-0.1-1.4c0.2-0.7,1-1.3,2-1.4c1-0.2,2.5,0.1,3.3,1.4c0.2,0.3,0.7,0.5,1,0.2c0.3-0.2,0.5-0.7,0.2-1
			c-0.7-1.1-1.8-1.8-3.2-2v-1c0-0.4-0.3-0.7-0.7-0.7s-0.7,0.3-0.7,0.7v1h-0.1c-1.6,0.3-2.9,1.2-3.2,2.5c-0.2,1-0.1,1.8,0.3,2.5
			c0.8,1.2,2.4,1.6,3.8,1.9c0.5,0.1,1,0.2,1.4,0.3c0.8,0.3,1.1,1,1.2,1.5c0.1,0.7-0.3,1.3-0.9,1.6c-2.4,1.3-4.7-0.6-5-1.1
			c-0.2-0.3-0.7-0.5-1-0.3c-0.3,0.2-0.5,0.7-0.2,1c0.4,0.7,2,1.9,3.9,2.2v1.2c0,0.4,0.3,0.7,0.7,0.7s0.7-0.3,0.7-0.7v-1.2
			c0.5-0.1,1.1-0.3,1.6-0.6C62,34.5,62.6,33.3,62.5,32.1L62.5,32.1z"/>
	</g>
	<g id="coin-1">
		<circle fill="#77D2F2" cx="100.5" cy="41.2" r="7.2"/>
		<path fill="#FFFFFF" d="M103,42.3c-0.1-0.7-0.5-1.3-1.2-1.6c-0.3-0.1-0.6-0.2-0.9-0.2c-0.7-0.1-1.4-0.3-1.7-0.7
			c-0.1-0.2-0.1-0.4-0.1-0.8c0.1-0.4,0.5-0.7,1.1-0.8c0.6-0.1,1.4,0.1,1.9,0.8c0.1,0.2,0.4,0.3,0.6,0.1c0.2-0.1,0.3-0.4,0.1-0.6
			c-0.4-0.6-1.1-1-1.8-1.2v-0.6c0-0.2-0.2-0.4-0.4-0.4c-0.2,0-0.4,0.2-0.4,0.4v0.6c0,0,0,0-0.1,0c-0.9,0.1-1.6,0.7-1.8,1.5
			c-0.1,0.6-0.1,1,0.2,1.4c0.4,0.7,1.4,0.9,2.2,1.1c0.3,0.1,0.6,0.1,0.8,0.2c0.5,0.2,0.7,0.5,0.7,0.9s-0.2,0.7-0.5,0.9
			c-1.4,0.7-2.7-0.3-2.9-0.6c-0.1-0.2-0.4-0.3-0.6-0.1c-0.2,0.1-0.3,0.4-0.1,0.6c0.2,0.4,1.1,1.1,2.2,1.2v0.7c0,0.2,0.2,0.4,0.4,0.4
			s0.4-0.2,0.4-0.4v-0.7c0.3,0,0.6-0.1,0.9-0.3C102.7,43.7,103,43.1,103,42.3L103,42.3z"/>
	</g>
</g>
<g id="piggy">
	<path opacity="0.1" fill="#114777" enable-background="new    " d="M125.9,82.4h-6.1c-2.4-4.4-6.1-8.2-10.7-11.2
		c-0.9-3.3-0.5-7.9-0.6-10.1c-0.1-2.7-0.1-4.1-4.4-1.6c-2.7,1.6-4.8,4.6-6.1,6.7c-5.3-1.5-11-2.1-17.1-1.7
		c-16.1,1.3-29.4,10-34.3,21.3c-1.4-1.2-3.1-2.3-5-2.8l4.6,3.7c-1.4,3.5-1.9,7.1-1.6,10.9c0.7,7.6,4.1,15,11.4,19.1v8.2
		c0,1.4,1.1,2.6,2.5,2.6h12.1c1.4,0,2.5-1.2,2.5-2.6V124c4.1,0.8,8.5,1.1,13.1,0.7c2.7-0.2,5.4-0.6,7.9-1.2v1.3
		c0,1.4,1.1,2.6,2.5,2.6h12.1c1.4,0,2.5-1.2,2.5-2.6V117c7.6-4.3,9.2-11.5,10.7-17.6h3.8c1.4,0,2.6-1.1,2.6-2.5V85
		C128.5,83.6,127.3,82.4,125.9,82.4L125.9,82.4z"/>
	<path id="pig-body" fill="#ffffff" d="M124.2,80.8h-6.1c-2.4-4.4-6.1-8.2-10.7-11.2c-0.9-3.3-0.5-7.9-0.6-10.1c-0.1-2.7-0.1-4.1-4.4-1.6
		c-2.7,1.6-4.8,4.6-6.1,6.7c-5.3-1.5-11.1-2.1-17.1-1.7c-15.7,1.2-28.6,9.4-33.8,20.3c-2-1.7-4.8-3.2-7.9-3
		c-1.3,0.1-2.5,0.6-3.4,1.1c-0.8-0.4-1.6-0.9-2.3-1.4c-2.5-2-1-6.1-1-6.2c0.2-0.5-0.1-1.1-0.6-1.3c-0.5-0.2-1.1,0.1-1.3,0.6
		c-0.1,0.2-2,5.5,1.6,8.4c0.6,0.5,1.3,0.9,2,1.3c-0.8,1-1.2,2.1-1.4,3.2c-0.4,2.6,0.6,5,2.7,6c0.9,0.4,1.7,0.6,2.4,0.6
		c0.9,0,1.6-0.3,2.1-0.7c1.3-0.9,1.9-2.7,1.7-4.7c-0.3-2.5-1.9-3.8-3.7-4.7c0.4-0.1,0.8-0.2,1.3-0.3c2.7-0.2,5.1,1.3,6.9,2.9
		c-1.3,3.4-1.9,7.1-1.6,10.9c0.7,7.6,4.1,15,11.4,19.1v8.2c0,1.4,1.1,2.6,2.5,2.6H69c1.4,0,2.5-1.2,2.5-2.6v-0.8
		c4.1,0.8,8.5,1.1,13.1,0.7c2.7-0.2,5.4-0.6,7.9-1.2v1.3c0,1.4,1.1,2.6,2.5,2.6h12.1c1.4,0,2.5-1.2,2.5-2.6v-7.8
		c7.6-4.3,9.2-11.5,10.7-17.5h3.8c1.4,0,2.6-1.1,2.6-2.5V83.3C126.8,81.9,125.7,80.8,124.2,80.8z M38.1,87.4
		c0.1,1.2-0.2,2.3-0.9,2.8c-0.7,0.5-1.8,0.2-2.5-0.1c-1.4-0.6-1.8-2.4-1.5-3.8c0.1-0.9,0.5-1.8,1.3-2.6
		C36.6,84.8,37.9,85.6,38.1,87.4z"/>
	<circle id="eye" fill="#1DB4E9" cx="106.4" cy="82.4" r="1.8"/>
	<g>
		<g>
			<defs>
				<path id="SVGID_1_" d="M124.2,80.8h-6.1c-2.4-4.4-6.1-8.2-10.7-11.2c-0.9-3.3-0.5-7.9-0.6-10.1c-0.1-2.7-0.1-4.1-4.4-1.6
					c-2.7,1.6-4.8,4.6-6.1,6.7c-5.3-1.5-11.1-2.1-17.1-1.7C57.8,64.5,41.5,79.3,43,96c0.7,7.6,4.1,15,11.4,19.1v8.2
					c0,1.4,1.1,2.6,2.5,2.6H69c1.4,0,2.5-1.2,2.5-2.6v-0.8c4.1,0.8,8.5,1.1,13.1,0.7c2.7-0.2,5.4-0.6,7.9-1.2v1.3
					c0,1.4,1.1,2.6,2.5,2.6h12.1c1.4,0,2.5-1.2,2.5-2.6v-7.8c7.6-4.3,9.2-11.5,10.7-17.5h3.8c1.4,0,2.6-1.1,2.6-2.5V83.3
					C126.8,81.9,125.7,80.8,124.2,80.8L124.2,80.8z"/>
			</defs>
			<clipPath id="SVGID_2_">
				<use xlink:href="#SVGID_1_"  overflow="visible"/>
			</clipPath>
			<path opacity="0.1" clip-path="url(#SVGID_2_)" fill="#114777" enable-background="new    " d="M56.3,125.8
				c0.2,0.1,0.4,0.1,0.7,0.1h12.1c1.4,0,2.5-1.2,2.5-2.6v-0.8c4.1,0.8,8.5,1.1,13.1,0.7c2.7-0.2,5.4-0.6,7.9-1.2v1.3
				c0,1.4,1.1,2.6,2.5,2.6h12.1c1.4,0,2.5-1.2,2.5-2.6v-7.8c7.6-4.3,9.2-11.5,10.7-17.5h3.8c1.4,0,2.6-1.1,2.6-2.5v-10L56.3,125.8
				L56.3,125.8z"/>
		</g>
	</g>
</g>
</svg>
