<?xml version="1.0" encoding="utf-8"?>
<!-- Generator: Adobe Illustrator 16.2.1, SVG Export Plug-In . SVG Version: 6.00 Build 0)  -->
<!DOCTYPE svg PUBLIC "-//W3C//DTD SVG 1.1//EN" "http://www.w3.org/Graphics/SVG/1.1/DTD/svg11.dtd">
<svg version="1.1" id="Layer_1" xmlns="http://www.w3.org/2000/svg" xmlns:xlink="http://www.w3.org/1999/xlink" x="0px" y="0px"
	 width="7002.3px" height="8079.5px" viewBox="0 0 7002.3 8079.5" enable-background="new 0 0 7002.3 8079.5" xml:space="preserve">
<path d="M5094.7,2474.9c28.6,43.4,41.7,102.2,107.9,107.9c-44.5,36.3-66.9,58-71.9,115.1c-35.6-10-71.6-19.6-93.5-43.2
	c-23.9,89.2,85.5,51.1,136.7,64.8c43.5-10.3,75-50.9,122.3-57.6c24.6-3.4,40.1,14.6,64.8,14.4c55.8-0.5,113.5-47.2,172.7-21.6
	c15.3,30.4-5.8,59-14.4,86.3c0.5,44.8,58.8,57.8,71.9,100.7c6.4,21.1-13.8,47-14.4,93.5c-0.5,36.5,16.6,74.1,14.4,100.7
	c-1.8,21.9-16,45-14.4,64.8c9.2,112.3,137.4,227.3,28.8,295c-50.5-31.4-36.6-95.5-50.4-143.9c-48.7-171.5-181.1-278.4-302.2-381.3
	c-108.6-40-229.4-68-388.5-57.6c-52.1,63.2-73.1,205.3,0,237.4c20.1,8.8,52,0.7,79.1,7.2c87.1,21,183.2,92,244.6,86.3
	c16.6,2.2,8-20.8,21.6-21.6c7.8-53.3-41.9-49.2-28.8-107.9c56.6-3.1,90,21.6,158.3,21.6c27.6,76.5-70.8,155.3-28.8,223
	c-25.4,11-43-19-79.1,0c-21.9,39.9,10.7,65,7.2,107.9c-19.5,9.3-40,17.6-71.9,14.4c7.9-108.6-94.4-107-136.7-165.5
	c-64.9,33.5-70.1,126.6-136.7,158.3c-88,8.7-173.5,22.5-223-21.6c-40.2-35.7-22.5-99.9-79.1-115.1c-44.1,1.5-21.6,69.5-50.4,86.3
	c-36.3,5.1-49.4-12.9-71.9-21.6c-29.3,8.8-50.6,56.7-86.3,36c-18.6-26.9,31.6-76-14.4-93.5c-72.4,46.3-78.2,168.8-71.9,280.6
	c10.2,181.6,107.2,360.3,244.6,467.6c122.1,95.4,306.9,151.1,489.2,122.3c240.4-38,434.2-215.7,510.8-424.5
	c22.9-62.4,10-140.3,64.8-172.7c83.3,136.3-108.6,374.2-201.4,460.5c-178.4,165.8-388.8,276.2-661.9,201.4
	c-130-35.6-265.1-124.9-352.5-251.8c-95.3-138.2-177.7-305.3-187.1-482c-4.8-91.1-247.5-105.9-129.5-230.2
	c31.8-3,50.4,7.1,64.8,21.6c109.2-61.2-15.7-275.4,79.1-345.3c-9.4-33.2-34.5-82.9-21.6-115.1c45.5-6.4,59.6,50.5,107.9,43.2
	c77.2-11.8,25.3-102.5,79.1-151.1c39-5.4,46.3,20.8,71.9,28.8c74.7-78.5,130.9-145.8,244.6-129.5c34.1,4.9,57.9,45.4,93.5,50.4
	c45.8,6.4,98.1-32.1,151.1-21.6c32.8,6.5,32.5,39.9,71.9,36c35.1-8.1,49.4-36.9,71.9-57.6c-9.8-33.4-59.5-26.9-64.8-64.8
	C5033.5,2485.6,5053.9,2470.1,5094.7,2474.9z M7000.4,3381.4c-60.4,0.4-65.3-54.6-93.5-86.3c-85.8,34-125.8-80.7-208.6-28.8
	c4.2,74.9,57.9,100.3,64.8,172.7c-23.3,19.2-41.5,0.7-64.8,14.4c11.6,70,59.8,103.3,79.1,165.5c-89.8-10.3-57.2,114.1-64.8,165.5
	c33.4,17.7,46.4,35.3,50.4,93.5c30.3,8.7,31.5-11.6,50.4-14.4c42.1,10.1,37,65.8,43.2,93.5c-58.1,18.7-137.5-56.1-194.3-100.7
	c-34.2,36,3.1,81.9,14.4,115.1c-2.6,57.7-26.4,60-14.4,122.3c-29.2,17.8-22.1-13.4-43.2-21.6c-32.7,32-21.7,49.2-14.4,107.9
	c8.9,70.9-11,189.9,0,237.4c20.8,89.5,141.3,94.1,151.1,179.9c-63.1-11.4-103.3,26.6-143.9,57.6c-26.6-0.4-45.7-55.9-64.8-86.3
	c-49.4,28.8,6.2,69.8,14.4,86.3c3.9,8-2.9,27.6,0,36c16.8,48.1,71,90.2,79.1,143.9c-24,13.2-47.9,30.4-71.9,7.2
	c-26.8,67.3-18.1,137.9,0,208.6c51.4,17.5,178.9-40.5,201.4,36c1.2,32.3-42.9,19.5-64.8,28.8c52.4,96.6-25.6,225.6-50.4,338.1
	c-25.2-3.5-46.8-10.7-79.1-7.2c7.9-49.7-26.2-110.5-79.1-122.3c-2.6-50.1-24.6-80.9-64.8-93.5c-44,25.9-10.1,100.3,21.6,115.1
	c-8.5,85.2,6.2,147.2,43.2,187.1c29.5,0.7,59,1.4,79.1-7.2c-5.9,51.6-19.4,95.7-36,136.7c-54.3-0.8-47.6-62.7-79.1-86.3
	c-45,8.8-17,53.3-36,93.5c-68.3,3.5-94.9,101.4-158.3,64.8c-41.5,16.1-39.7,75.4-79.1,93.5c-31.9,3.1-15.6-41.9-43.2-43.2
	c-30.1-6.1-34,14-57.6,14.4c-3.3-35-16.1-60.7-43.2-71.9c-144.1,40.6-90.8,278.5-201.4,352.5c-1.1,17.9,11.3,22.3,14.4,36
	c47.7-2.7,47.1-53.7,64.8-86.3c87.4,13.4,124.5,77,165.5,136.7c-43.2,5.6-75.3,7.6-122.3,21.6c-6.4-12.8-20.1-18.3-14.4-43.2
	c-17.6,12.6-18.1,42.3-50.4,21.6c-22.3,34.8-9.7,81.5,7.2,115.1c22.6,19.1,30.4-20.3,57.6,0c69.6,124.5-34.5,258.4-100.7,345.3
	c-48.8,11.2-79.7,40.3-107.9,71.9c-29.3-1.8-35.5-26.8-71.9-21.6c-22.4,29.5-45.6,92-14.4,115.1c-38,34.7-32,120.4-7.2,165.5
	c41.3,4.3,98.5,10.1,107.9,64.8c-7.6,33.1-48.6,32.9-57.6,64.8c-146.4,7.3-264.2-95.8-381.3-100.7
	c-34.3-68.9-143.1-63.2-194.3-115.1c-97.2,232.1-49,612.8-237.4,769.8c-24.8,166.8-171.1,238.7-309.4,309.4
	c-111.2,56.9-213.8,106.5-359.7,129.5c-2.4,0-4.8,0-7.2,0c-95.6-13.6-190.2-14.9-287.8-21.6c-146.2-10-272.3-91.8-402.9-7.2
	c-160.5,14.2-312.9-43.8-438.9-79.1c-85.2-23.9-171.8-26.2-251.8-50.4c-230.4-69.6-420-163.6-625.9-266.2
	c-114.4-57-228.1-97.9-323.8-172.7c-51.3-40.1-90.5-93.4-143.9-129.5c-55.9-37.7-107.6-66.5-158.3-107.9
	c-53.9-44-99.9-87.9-151.1-122.3c-57.8-38.9-118-45.4-194.3-71.9c-79.4-27.7-231.9-140-352.5-107.9
	c-39.1,10.4-58.9,76.6-107.9,107.9c-80.3,51.3-177.2,50.2-208.6,151.1c-14.3-5.4,24.2-40.4,0-57.6c-34.8-16.7-99.1,42.3-136.7,0
	c-32-75.4,101.1-67.2,115.1-129.5c12.7-56.3-34-110.3-86.3-136.7c-34.3,4.1-51,25.7-79.1,36c-31.5,0.3-36.2-26.2-71.9-21.6
	c-38.3,16.1-20.2,46.5-21.6,93.5c-89.5,50.1-185.6-19-172.7-107.9c26.6-18,41.3-8.1,79.1-7.2c77.9-73.2,203.1-99,223-230.2
	c-82.2-68.9-74.5-227.6-179.9-273.4c-21.2,26.1-23.5,92.1-7.2,115.1c-49.9,40.6-108.8,81.2-187.1,57.6
	c-12.6-32.2-38.6-178.6,36-194.3c-47.8-97.3-80.4-274.1-86.3-438.9c-1.9-53.3,17.5-121.3,14.4-179.9c-3.4-62.6-26.5-108,21.6-151.1
	c95.4-34.1,152.7-106.3,230.2-158.3c4.7-37.5-8.5-65,0-86.3c39.7,1.3,66.2-10.5,93.5-21.6c-18.9-42.7-56.5-47.6-86.3-64.8
	c-2.4-89.5,118.8-124.7,100.7-223c-7.4-40.5-72.1-48.7-100.7-86.3c-20.5-27-23.6-94.5-43.2-151.1c-21.3-61.5-41.4-91.3-7.2-158.3
	c-55.3-58.9-57.4-169.7,7.2-223c-14.6-88.5,23.1-128.6,43.2-187.1c26.2-76.4,119-106.5,165.5-172.7c-32.1-23.5-12.4-70.5-21.6-115.1
	c-6.7-32.6-32.8-56.8-28.8-79.1c8.9-50.3,62.5-34.5,86.3-79.1c-19-66,25-112.9,21.6-179.9c-2.6-51.6-39.9-88.8-36-136.7
	c1.3-15.3,23.4-41.2,28.8-64.8c10.7-46.6-2-88.2,14.4-115.1c19.9-32.7,64-34.1,86.3-64.8c-19-58.4,39.6-140.9-28.8-165.5
	c25.6-120.7,38.4-254.2,86.3-352.5c4.7-26.3-4.8-38.3-14.4-50.4c3.8-170.6,113-312.7,143.9-460.5c20.3-97,36.3-146.6,71.9-230.2
	c22.1-52,31.8-112.3,50.4-151.1c22.1-46.2,100.9-88.2,64.8-151.1c119.9-96,274.3-157.4,381.3-266.2
	c115.7,15.3,209.1-48.4,230.2-151.1c42.4-10.4,69.1-36.4,115.1-43.2c80.5-163.8,222.1-262.8,345.3-388.5
	c49.1-50.1,78.5-96.8,129.5-136.7c63.1-49.4,150.5-74.8,194.3-151.1c166.8-81.5,330.1-175.9,503.6-266.2
	c199.6-103.9,454.2-154.5,705.1-237.4c44.6,16.5,118.1,4.3,158.3-7.2c19.2,0,38.4,0,57.6,0c441.7,45.4,862.5,215.6,1151.1,453.3
	c37.8,31.1,97.9,66.3,100.7,122.3c-25.9,16.5-34.9,7.3-71.9,7.2c-1.4-22.6-28.5-19.5-21.6-50.4c-108.4-40.3-229.6-67.8-302.2-143.9
	c-153.1-31.8-291.5-133.5-460.4-172.7c-29.1,6.9-57.3,14.7-86.3,21.6c-19.2-16.7-47.2-24.7-64.8-43.2c-93,26.3-193.6,13-287.8,14.4
	c-81,1.2-167.9,31.5-259,57.6c-97.4,27.8-196.1,33.7-208.6,158.3c-21.9,26-67.3,28.6-86.3,57.6c-25.3-19.3-54.6-25.6-86.3-7.2
	c-8.3,37.1,7.7,46.4,7.2,79.1c-64.8,16.7-59.8,103.3-100.7,143.9c41.4,52.4-38.1,107.4-21.6,172.7c-17.8,13.9-25.6-7-36,14.4
	c84,126.4,12,265.6,43.2,431.7c-16.5,16.3-26.2,47.3-57.6,28.8c7.4,54.2,11.5,92.6,14.4,136.7c93.6-21.6,155.6,69.2,172.7,122.3
	c-61,7.8-90.3-23.8-136.7-57.6c-25.5,10.5-46.4,25.5-43.2,64.8c-74.5-7.4-91.9,72.8-71.9,136.7c-2,41.1-70.5,22.4-100.7,43.2
	c-15.1,10.4-63.4,90.7-57.6,115.1c7.9,33.3,38.9,39,86.3,43.2c4.6,50.6,33.7,76.7,50.4,115.1c40.8,4.7,74.5,16.7,107.9,28.8
	c1.1,32.3-32.3,30-64.8,28.8c0.7,36.6-15.1,56.9-14.4,93.5c-59.7,21.9-84.7,78.4-143.9,100.7c40.8,105.1,155.1,77.5,251.8,100.7
	c22.1,5.3,38.2,28,64.8,36c24.6,7.4,57.3,0.1,79.1,7.2c22.1,7.2,39.9,34.1,64.8,43.2c78.6,28.7,178.5,33.9,251.8,64.8
	c21.2,8.9,39.6,36.7,64.8,50.4c54.9,29.8,133,33.3,158.3,93.5c23.3,8.9,5.5-23.3,28.8-14.4c86.1,53,74,204.2,143.9,273.4
	c-5,31-27.8,44.2-36,71.9c16.3,67.7,47,120.9,107.9,143.9c-0.9,31.5,17.7,74.6,7.2,107.9c-12,38-64,53.3-86.3,86.3
	c-37.3,55.1-32.3,116.5-50.4,187.1c-5.9,22.8-28.4,41.3-36,64.8c-40.9,127.1-69.4,274.3-71.9,402.9c-57.2,42.5-19.7,82.3-14.4,151.1
	c6.1,79.5-5.8,116.2,28.8,179.9c15.3,28.2,36.8,36,57.6,64.8c26.9,37.2,33.2,79.9,57.6,100.7c37.8,32.5,90.1,35.1,115.1,71.9
	c101.5-15.2,129.2,43.5,194.3,64.8c67.4-9,71.5-93.7,136.7-122.3c50.7-22.3,192-33,208.6,21.6c12.3,40.4-34.3,80.8-57.6,93.5
	c-70,38.4-183.5,41.3-287.8,115.1c-48.2,34.1-137.1,148.6-179.9,158.3c-94.2,21.3-225.2,9.3-287.8,57.6
	c-99.2-48.7-211.8-7-230.2,100.7c41.9,9.9,114.7,6.2,122.3,71.9c5.2,44.8-42.6,69.2-43.2,107.9c41.7,48.5,117.3,38.8,208.6,64.8
	c51.7,14.7,136.8,60.4,215.8,64.8c24.9,1.4,52.5-12.3,79.1-14.4c77.8-6.2,160.7,17.1,230.2,14.4c25.5-1,46.3-15.9,71.9-14.4
	c79.8,4.7,148.6,45,223,36c85.9-10.4,128.8-89.2,208.6-107.9c55.2,24,153.9,4.4,179.9,57.6c-3.2,60.3-47,80.6-7.2,129.5
	c-30.5,134.7-152.6,25.5-251.8,21.6c-67.5-2.6-141.1,43-215.8,36c-26-2.4-46.6-22.7-71.9-28.8c-243.4-58.7-512.4-38.6-733.8-7.2
	c-14,36.4,12.3,47.8,14.4,86.3c-47.4,52.4-124.1-29.3-165.5,21.6c56.2,86.9,187.5,55.9,251.8,129.5c4.7,67.2,44.6,99.3,100.7,115.1
	c42.4-16.1,25.8-51.8,28.8-79.1c59.5-7.7,97.3,45.3,129.5,86.3c135.5-21.5,353.4,208.5,86.3,151.1c-29.1,11.7-23,58.5-43.2,79.1
	c-64.8,19.6-144.7-16.7-187.1,28.8c-60.8-7.5-263.8-60-330.9-50.4c-38.9,5.6-65.4,50.6-107.9,57.6c-34.3,5.6-156.1-8.7-179.9-28.8
	c-21.4,38.1-83.9,31.4-115.1,7.2c22.7,27.2,0.3,20.6-14.4,43.2c-10.1,44.9,15.2,84.8,21.6,129.5c3.5,24.6-7.5,59.4,0,79.1
	c23.6,62.4,99,61.5,151.1,100.7c49.5,130.4,174.4,185.3,287.8,251.8c62.3-17.2,105.3-9.4,143.9-50.4
	c73.8,102.4,268.7,51.3,359.7,143.9c85.3-29.7,135.6,15.8,215.8,7.2c20.9-2.2,42.7-24.6,64.8-28.8c27.7-5.3,56.3,5,79.1,0
	c58.9-12.9,142.5-51.1,187.1-79.1c38.9-24.5,56.6-65.6,93.5-107.9c34.2-39.2,88.4-69.1,122.3-100.7
	c53.7-50.1,98.4-104.2,187.1-107.9c38.1-41,19.4-138.9,36-201.4c36.3-4.5,42,49.8,79.1,21.6c5.5-29.6,1-89,43.2-100.7
	c-13.7-22.3-29.7-42.3-21.6-86.3c52.9-7,104.6-15.3,151.1-28.8c41.2,41.9,2.3,122,50.4,151.1c-101.3,13.8-109.6,120.6-201.4,143.9
	c-39.2,95.8,63.5,122.2,122.3,64.8c36-107.9,129.1-158.6,194.3-237.4c-2.2-28.6,16.6-36.1,14.4-64.8c24-9.6,25.1-42.1,50.4-50.4
	c26.6-110.1,76.5-204.3,115.1-309.4c40.6-110.5,52.7-226.6,86.3-338.1c8.3-27.7,31.9-50,36-79.1c5.4-38.7-12-76.7-7.2-115.1
	c4.4-34.9,32.7-60.5,36-93.5c2.5-25.5-10.2-55.7-7.2-86.3c2.7-27.4,20.9-49,21.6-79.1c0.3-14.4-8.2-31.8-7.2-50.4
	c3.6-67.4,53.1-155.6,50.4-208.6c-1-20.4-14.7-38.1-14.4-57.6c0.7-50.9,24.3-107,28.8-165.5c10.9-143.6,25.9-251.7,86.3-352.5
	c-11.5-40.9-9.3-97.3,14.4-136.7c-5.6-24.2-4.4-45.7-14.4-79.1c17.9-22.9,32.5-49.1,50.4-71.9c69,13,36.9,104.7,28.8,151.1
	c66.6,92.5-10.5,191.6-21.6,287.8c-5.6,48.6,7.8,102.4,0,158.3c-7.8,56.1-16.7,111.6-28.8,165.5c-11,49-40.4,94.7-50.4,143.9
	c-10.6,52.9,9.4,109.9-28.8,151.1c-19.3,117.3,112.2,222.7,215.8,208.6c202.3-27.5,100.3-335.7,122.3-525.2
	c3.4-28.9,18.4-52.3,21.6-79.1c7.6-63.6-6.7-126.9,0-187.1c22-198.4,105.3-366.4,107.9-525.2c-5.4-16.2-40.4-2.8-57.6-7.2
	c-18.5-24.7-29.1-57.2-50.4-79.1c-52.7,33-79.9-27.3-122.3-28.8c-64.5-2.3-86,56.8-136.7,93.5c-35.3-28.7-27.4-99.7-21.6-151.1
	c36.1-7.3,27.5,30.1,64.8,21.6c101.5-68.8,218.5-122.1,316.6-194.3c-20.3-44.4-62.6-66.9-100.7-93.5c-89,23.7-162.7,62.7-251.8,86.3
	c-66.3,60.6-162.6,114-280.6,100.7c39.4-31.7,115-52.1,86.3-129.5c60.7-116.9,161.5-195,129.5-388.5c-4.6-27.9-30.5-53.6-36-86.3
	c-7.6-44.8-2.7-118.3,0-165.5c17.1-301.1-45.6-638.7-151.1-863.3c6.4-120.4-80.6-195.2-107.9-287.8c-22.8-77.3-26-152.6-86.3-208.6
	c3.5-32.3-3.6-53.9-7.2-79.1c-115.2-155.8-180.5-361.5-330.9-482c-12.9-47.1-57.7-62.2-64.8-115.1c17.7-24.8,56.6,10.4,64.8-28.8
	c111.7,82.1,224.9,158.4,309.4,273.4c70.9,96.5,132.1,222.9,215.8,302.2c40,37.9,98.4,52.1,143.9,86.3
	c52.4,39.4,100.8,82.5,136.7,136.7c38.7,58.5,111.1,107.5,165.5,165.5c29.2,31.1,45.5,72.3,71.9,100.7
	c22.4,24.1,58.1,39.9,79.1,64.8c42.8,50.6,65,117.4,136.7,143.9c12.4,28.5-3.2,52.2,7.2,71.9c46.8,34.7,101.6,61.5,143.9,100.7
	c16.9,41.6-20.6,59.8,7.2,86.3c50.8,19.1,104.8-9.2,143.9,21.6c-6.4,46-59.1,60.5-36,115.1c-58.4,37.6-74.2,117.6-122.3,165.5
	c25.2,120.5-9.1,268.4,93.5,323.8c5.1,26.6-30.8,12.4-36,28.8c56.2,150.1,221.1,191.4,259,359.7c-6.4,21.1-40.3-10.5-57.6-14.4
	C6868.8,3299.4,7020.8,3280,7000.4,3381.4z M3475.1,3259.1c6.3-23.1-11.1-22.5-21.6-28.8C3442.9,3240.3,3449.8,3264.6,3475.1,3259.1
	z M2208.9,3403c8.1,1.5,11.2,8,14.4,14.4C2339.1,3406.3,2206.9,3271.9,2208.9,3403z M3000.3,2949.8
	c142.7,70.8,236.3,190.6,402.9,237.4c-0.3-41.2-43.3-52.1-50.4-100.7c-3.9-26.7,21.4-56.4,14.4-79.1
	c-6.4-20.8-74.6-80.9-115.1-107.9C3138.5,2823.6,3044.8,2832.6,3000.3,2949.8z M3050.6,3108c-12,0-24,0-36,0
	C3007.6,3137,3057.6,3137,3050.6,3108z M3352.8,3942.6c42.3-85,32.7-189.2-14.4-251.8c47.4-86.9,34-234.6,107.9-295
	c-10-45.1-39.1-71.2-50.4-115.1c-90.1-18.4-124.7-159-215.8-129.5c-32.3,99.4-67.6,176.8-172.7,187.1
	c-98.9,9.7-159.6-69.7-244.6-64.8c11.9,105.6,175.4,59.6,201.4,151.1c-46.9,40.1-97.1,81.9-179.9,50.4c-15.3,11.1-26.8,26-43.2,36
	c-4.6,90.9,15.8,156.9,43.2,215.8c-104.9,99.9-127.2-83.8-237.4-93.5c-34.9-3.1-60.2,27.3-122.3,14.4c-34.2-9.2-59.4-87-86.3-57.6
	C2308.3,4018.6,3014.5,4250.8,3352.8,3942.6z M2935.5,4971.4c1.9,23.5-22.4,20.8-28.8,36c16.9,40.3-25,115.8,36,122.3
	C3013.5,5108.9,2994.3,4993.1,2935.5,4971.4z M3108.2,4748.4c10.5-53.6-31.2-55.2-36-93.5c-55.6,1.9-64.1,51.1-122.3,50.4
	c-26.6-69.3,25.5-129.3,50.4-179.9c13.9-28.3,23.1-65.3,36-86.3c68.7-112,227.5-169,244.6-316.6c-15.2-6.4-21.3-21.9-43.2-21.6
	c-216.5,128.1-549.2,73.6-769.8,179.9c10.4,102.8-45.5,191.6-7.2,287.8c14,35.1,71.6,53.3,93.5,93.5c34,62.4,33.4,111.7,28.8,179.9
	c13.5,36.8,65.3,35.4,86.3,64.8c-7.3,77.4-19.6,99.5-7.2,194.3c-41.4-3-43.1,33.7-71.9,43.2c-26.7,110.8-27.3,213.6-50.4,330.9
	c-8.2,41.8-34.7,84-28.8,115.1c6.1,32.5,70.5,71.7,86.3,100.7c23,42.1,11.8,88,28.8,129.5c15.5,37.9,70.4,88,107.9,93.5
	c19.4,2.8,52.8-23.1,79.1-21.6c40.1,2.3,57.5,31.1,93.5,14.4c18.6-90.2,43.4-228.5,7.2-330.9c-191.2-35.7-223.1-221.7-251.8-402.9
	c35.2-34.8,122.5-99.5,151.1-172.7c20.5-52.3-0.3-122.3,64.8-122.3c51.2,0,42.9,77.7,122.3,64.8c25.3-41.8,20.1-114.2,36-165.5
	C3065.9,4773.3,3095.3,4769,3108.2,4748.4z M6619.1,5288c-11.1-24.9-12.6-59.3-43.2-64.8C6544.8,5258.5,6568.9,5330.7,6619.1,5288z
	 M4929.3,4777.2c-123.7-164.1-198.5-377.1-402.9-460.4c7.4,145.7,99.9,219.6,165.5,323.8c55.4,88,87.8,198.4,172.7,237.4
	C4841.9,4811.1,4899.2,4809.3,4929.3,4777.2z"/>
</svg>
