<?xml version="1.0" encoding="utf-8"?>
<!-- Generator: Adobe Illustrator 16.2.1, SVG Export Plug-In . SVG Version: 6.00 Build 0)  -->
<!DOCTYPE svg PUBLIC "-//W3C//DTD SVG 1.1//EN" "http://www.w3.org/Graphics/SVG/1.1/DTD/svg11.dtd">
<svg version="1.1" id="RAW_ICONS_-_SQUARE__x2F__ROUNDED__x2F__CIRCLE"
	 xmlns="http://www.w3.org/2000/svg" xmlns:xlink="http://www.w3.org/1999/xlink" x="0px" y="0px" width="32px" height="32px"
	 viewBox="20.586 19.434 32 32" enable-background="new 20.586 19.434 32 32" xml:space="preserve">
<path d="M36.586,19.434c-8.836,0-16,7.164-16,16s7.164,16,16,16c8.837,0,16-7.162,16-16C52.586,26.598,45.423,19.434,36.586,19.434z
	 M40.016,35.438h-2.242c0,3.584,0,7.996,0,7.996H34.45c0,0,0-4.367,0-7.996h-1.58v-2.823h1.58v-1.828c0-1.31,0.62-3.354,3.354-3.354
	l2.461,0.01v2.742c0,0-1.496,0-1.787,0s-0.705,0.146-0.705,0.771v1.66h2.533L40.016,35.438z"/>
</svg>
