<?xml version="1.0" encoding="utf-8"?>
<!-- Generator: Adobe Illustrator 16.2.1, SVG Export Plug-In . SVG Version: 6.00 Build 0)  -->
<!DOCTYPE svg PUBLIC "-//W3C//DTD SVG 1.1//EN" "http://www.w3.org/Graphics/SVG/1.1/DTD/svg11.dtd">
<svg version="1.1" id="Layer_1" xmlns="http://www.w3.org/2000/svg" xmlns:xlink="http://www.w3.org/1999/xlink" x="0px" y="0px"
	 width="361.8px" height="361.8px" viewBox="0 0 361.8 361.8" enable-background="new 0 0 361.8 361.8" xml:space="preserve">
<path d="M291.6,0.5H70.2C31.8,0.5,0.5,31.8,0.5,70.2v73.6v147.7
	c0,38.4,31.3,69.7,69.7,69.7h221.3c38.4,0,69.7-31.3,69.7-69.7V143.9V70.2C361.3,31.8,330,0.5,291.6,0.5z M311.5,42.1l8,0V50v53.2
	l-61,0.2l-0.2-61.1L311.5,42.1z M129.4,143.9c11.6-16,30.3-26.5,51.5-26.5s39.9,10.5,51.5,26.5c7.5,10.4,12,23.2,12,37
	c0,35-28.5,63.5-63.5,63.5c-35,0-63.5-28.5-63.5-63.5C117.4,167.1,121.9,154.3,129.4,143.9z M326.1,291.6
	c0,19.1-15.5,34.6-34.6,34.6H70.2c-19.1,0-34.6-15.5-34.6-34.6V143.9h53.9c-4.7,11.4-7.3,23.9-7.3,37c0,54.4,44.3,98.7,98.7,98.7
	c54.4,0,98.7-44.3,98.7-98.7c0-13.1-2.6-25.6-7.3-37h53.9V291.6z"/>
</svg>
