<?xml version="1.0" encoding="utf-8"?>
<!-- Generator: Adobe Illustrator 16.2.1, SVG Export Plug-In . SVG Version: 6.00 Build 0)  -->
<!DOCTYPE svg PUBLIC "-//W3C//DTD SVG 1.1//EN" "http://www.w3.org/Graphics/SVG/1.1/DTD/svg11.dtd">
<svg version="1.1" id="RAW_ICONS_-_SQUARE__x2F__ROUNDED__x2F__CIRCLE"
	 xmlns="http://www.w3.org/2000/svg" xmlns:xlink="http://www.w3.org/1999/xlink" x="0px" y="0px" width="32px" height="32px"
	 viewBox="18.391 19.434 32 32" enable-background="new 18.391 19.434 32 32" xml:space="preserve">
<path d="M34.391,19.434c-8.836,0-16,7.164-16,16s7.164,16,16,16s16-7.162,16-16C50.393,26.598,43.229,19.434,34.391,19.434z
	 M40.753,32.171c0.007,0.142,0.011,0.281,0.011,0.424c0,4.339-3.303,9.341-9.341,9.341c-1.854,0-3.579-0.543-5.032-1.476
	c0.258,0.029,0.52,0.045,0.783,0.045c1.539,0,2.953-0.522,4.076-1.403c-1.436-0.026-2.648-0.978-3.064-2.278
	c0.199,0.036,0.404,0.059,0.616,0.059c0.3,0,0.591-0.041,0.864-0.114c-1.5-0.304-2.633-1.629-2.633-3.22c0-0.014,0-0.026,0-0.041
	c0.443,0.246,0.949,0.394,1.486,0.41c-0.881-0.588-1.459-1.594-1.459-2.731c0-0.603,0.162-1.166,0.443-1.65
	c1.618,1.986,4.038,3.293,6.766,3.43c-0.056-0.24-0.084-0.49-0.084-0.748c0-1.812,1.469-3.281,3.282-3.281
	c0.943,0,1.798,0.398,2.396,1.035c0.746-0.146,1.449-0.42,2.086-0.797c-0.246,0.768-0.768,1.41-1.443,1.816
	c0.664-0.078,1.299-0.256,1.887-0.516C41.951,31.13,41.396,31.708,40.753,32.171z"/>
</svg>
