<?xml version="1.0" encoding="utf-8"?>
<!-- Generator: Adobe Illustrator 16.2.1, SVG Export Plug-In . SVG Version: 6.00 Build 0)  -->
<!DOCTYPE svg PUBLIC "-//W3C//DTD SVG 1.1//EN" "http://www.w3.org/Graphics/SVG/1.1/DTD/svg11.dtd">
<svg version="1.1" id="RAW_ICONS_-_SQUARE__x2F__ROUNDED__x2F__CIRCLE"
	 xmlns="http://www.w3.org/2000/svg" xmlns:xlink="http://www.w3.org/1999/xlink" x="0px" y="0px" width="32px" height="32px"
	 viewBox="19.02 19.434 32 32" enable-background="new 19.02 19.434 32 32" xml:space="preserve">
<path d="M35.02,19.434c-8.836,0-16,7.164-16,16s7.164,16,16,16s16-7.162,16-16C51.021,26.598,43.854,19.434,35.02,19.434z
	 M42.938,31.805c-0.895,5.034-5.889,9.299-7.392,10.274c-1.503,0.974-2.874-0.392-3.37-1.422c-0.57-1.179-2.275-7.556-2.722-8.082
	c-0.447-0.527-1.787,0.526-1.787,0.526l-0.649-0.852c0,0,2.721-3.25,4.791-3.656c2.196-0.432,2.193,3.371,2.723,5.482
	c0.511,2.041,0.854,3.209,1.3,3.209s1.3-1.141,2.233-2.883c0.935-1.748-0.041-3.291-1.869-2.193
	C36.93,27.823,43.833,26.77,42.938,31.805z"/>
</svg>
